<?xml version="1.0" encoding="UTF-8"?>
<svg id="Layer_2" data-name="Layer 2" xmlns="http://www.w3.org/2000/svg" viewBox="0 0 392.04 43.66">
  <defs>
    <style>
      .cls-1 {
        fill: #7ec352;
      }

      .cls-2 {
        fill: #fff;
      }

      .cls-3 {
        fill: #00c0f3;
      }

      .cls-4 {
        fill: #ffd530;
      }

      .cls-5 {
        fill: #034ea2;
      }

      .cls-6 {
        fill: #fff200;
      }
    </style>
  </defs>
  <g id="Layer_1-2" data-name="Layer 1">
    <g>
      <g>
        <rect class="cls-2" x="165.53" width="64.29" height="43.66"/>
        <rect class="cls-5" x="166.77" y="1.2" width="61.82" height="41.21"/>
        <polyline class="cls-6" points="196.36 10.18 197.66 9.23 198.97 10.18 198.47 8.64 199.8 7.69 198.16 7.69 197.66 6.13 197.16 7.69 195.53 7.69 196.85 8.64 196.36 10.18"/>
        <polyline class="cls-6" points="189.61 11.99 190.91 11.04 192.22 11.99 191.72 10.45 193.04 9.5 191.41 9.5 190.91 7.94 190.41 9.5 188.78 9.5 190.1 10.45 189.61 11.99"/>
        <polyline class="cls-6" points="185.97 12.89 185.47 14.45 183.84 14.45 185.16 15.4 184.67 16.94 185.97 15.99 187.28 16.94 186.78 15.4 188.1 14.45 186.47 14.45 185.97 12.89"/>
        <polyline class="cls-6" points="184.16 22.73 185.46 23.68 184.97 22.14 186.29 21.19 184.66 21.19 184.16 19.63 183.66 21.2 182.03 21.19 183.35 22.14 182.86 23.68 184.16 22.73"/>
        <polyline class="cls-6" points="186.47 27.95 185.97 26.39 185.47 27.96 183.84 27.95 185.16 28.91 184.67 30.45 185.97 29.49 187.28 30.45 186.78 28.91 188.1 27.95 186.47 27.95"/>
        <polyline class="cls-6" points="191.42 32.9 190.92 31.35 190.42 32.91 188.79 32.9 190.11 33.86 189.62 35.39 190.92 34.44 192.23 35.39 191.73 33.86 193.05 32.9 191.42 32.9"/>
        <polyline class="cls-6" points="198.16 34.7 197.66 33.14 197.16 34.7 195.53 34.7 196.86 35.65 196.36 37.19 197.66 36.24 198.97 37.19 198.47 35.65 199.8 34.7 198.16 34.7"/>
        <polyline class="cls-6" points="204.91 32.9 204.41 31.35 203.91 32.91 202.27 32.9 203.6 33.86 203.1 35.39 204.41 34.44 205.71 35.39 205.21 33.86 206.54 32.9 204.91 32.9"/>
        <polyline class="cls-6" points="209.86 27.95 209.36 26.39 208.85 27.96 207.22 27.95 208.55 28.91 208.05 30.45 209.36 29.49 210.66 30.45 210.16 28.91 211.49 27.95 209.86 27.95"/>
        <polyline class="cls-6" points="213.28 21.17 211.65 21.17 211.15 19.61 210.65 21.18 209.02 21.17 210.34 22.13 209.84 23.66 211.15 22.71 212.45 23.66 211.96 22.13 213.28 21.17"/>
        <polyline class="cls-6" points="208.05 16.92 209.36 15.97 210.66 16.92 210.16 15.38 211.49 14.43 209.86 14.43 209.36 12.87 208.85 14.43 207.22 14.43 208.55 15.38 208.05 16.92"/>
        <polyline class="cls-6" points="204.43 7.94 203.93 9.5 202.29 9.5 203.62 10.45 203.12 11.99 204.43 11.04 205.73 11.99 205.23 10.45 206.56 9.5 204.92 9.5 204.43 7.94"/>
        <g>
          <path class="cls-2" d="M236.2,10.4V1.2h2.78l1.67,6.28,1.65-6.28h2.79v9.21h-1.73V3.15l-1.83,7.25h-1.79l-1.82-7.25v7.25h-1.73Z"/>
          <path class="cls-2" d="M250.15,6.28v1.37c-.72,0-1.2.06-1.46.18-.26.12-.39.32-.39.61,0,.21.09.39.27.52.18.13.39.2.64.2.44,0,.97-.21,1.58-.62l1.16,1.15c-.97.58-1.91.87-2.84.87-.75,0-1.37-.18-1.87-.55-.5-.37-.75-.84-.75-1.42,0-.75.39-1.3,1.18-1.63-.62-.34-.93-.82-.93-1.46,0-.52.2-.97.6-1.35.4-.37,1.04-.56,1.91-.56.98,0,1.79.22,2.43.67l-1.04,1.12c-.43-.24-.85-.36-1.26-.36-.29,0-.51.06-.66.17-.15.11-.22.25-.22.41,0,.46.55.68,1.66.68Z"/>
          <path class="cls-2" d="M255.98,3.73h5.13v1.46h-1.63v5.21h-1.76v-5.21h-1.73v-1.46Z"/>
          <path class="cls-2" d="M268.39,12.94h-1.76v-5.94c0-.59-.02-1.01-.07-1.25-.05-.24-.16-.44-.34-.59s-.41-.23-.68-.23c-.33,0-.62.09-.87.28-.25.19-.41.43-.48.73-.07.3-.11.78-.11,1.44v3.02h-1.76V3.73h1.64v.98c.58-.75,1.32-1.13,2.2-1.13.51,0,.95.11,1.31.33.36.22.6.5.73.85.13.34.2.84.2,1.49v6.68Z"/>
          <path class="cls-2" d="M273.11,3.73h1.95l1.48,3.08,1.61-3.08h1.85l-2.39,4.56,2.56,4.65h-2.02l-1.61-3.17-1.66,3.17h-1.92l2.55-4.65-2.4-4.56Z"/>
          <path class="cls-2" d="M282.76,9.99v2.95h-1.76v-5.25c0-.95.1-1.7.29-2.25.19-.55.55-1,1.06-1.34.51-.34,1.13-.51,1.85-.51,1.08,0,1.93.35,2.57,1.04.64.7.95,1.53.95,2.51s-.31,1.76-.92,2.43c-.61.66-1.37,1-2.26,1-.59,0-1.18-.19-1.78-.56ZM282.76,7.27c0,.55.14,1,.42,1.34.28.34.66.51,1.14.51s.86-.19,1.15-.57c.29-.38.44-.88.44-1.49s-.14-1.12-.41-1.49c-.27-.36-.66-.55-1.17-.55-.44,0-.81.16-1.12.49-.31.33-.46.91-.46,1.76Z"/>
          <path class="cls-2" d="M295.18,12.94h-1.76v-5.94c0-.59-.02-1.01-.07-1.25-.05-.24-.16-.44-.34-.59s-.41-.23-.68-.23c-.33,0-.62.09-.87.28-.25.19-.41.43-.48.73-.07.3-.11.78-.11,1.44v3.02h-1.76V3.73h1.64v.98c.58-.75,1.32-1.13,2.2-1.13.51,0,.95.11,1.31.33.36.22.6.5.73.85.13.34.2.84.2,1.49v6.68Z"/>
          <path class="cls-2" d="M296.97,3.73h1.76v3.03c0,.57.03,1.01.09,1.32.06.32.19.58.4.77.21.2.46.3.74.3s.56-.1.78-.31c.22-.21.36-.45.42-.75.06-.29.09-.73.09-1.32v-3.05h1.76v6.67h-1.63v-.8c-.33.64-.78.95-1.34.95-.6,0-1.04-.32-1.32-.95v3.34h-1.76V3.73Z"/>
          <path class="cls-2" d="M309.91,3.73h1.51c-.24.49-.44,1.11-.6,1.86-.16.76-.24,1.28-.24,1.59,0,.39.07.9.22,1.53.15.63.33,1.19.55,1.7h-1.48c-.02-.08-.06-.2-.11-.35-.09-.25-.16-.5-.23-.75-.51.84-1.25,1.26-2.2,1.26-.9,0-1.61-.37-2.13-1.1-.52-.73-.78-1.58-.78-2.56,0-.92.26-1.7.77-2.35.51-.64,1.23-.97,2.15-.97s1.63.43,2.19,1.3c.08-.31.2-.69.37-1.15ZM306.23,7.09c0,.62.13,1.11.39,1.5.26.38.6.57,1.02.57s.73-.17.99-.51c.26-.34.38-.86.38-1.56s-.14-1.21-.41-1.57c-.27-.36-.6-.53-.99-.53s-.73.18-1,.55c-.26.37-.39.89-.39,1.55Z"/>
          <path class="cls-2" d="M312.14,3.73h5.13v1.46h-1.63v5.21h-1.76v-5.21h-1.73v-1.46Z"/>
          <path class="cls-2" d="M317.74,6.97c0-.59.14-1.15.43-1.7.29-.55.7-.97,1.23-1.26.53-.29,1.12-.43,1.77-.43,1.01,0,1.84.33,2.48.98.64.66.97,1.48.97,2.48s-.33,1.85-.98,2.51c-.65.66-1.47,1-2.46,1-.61,0-1.19-.14-1.75-.41-.55-.28-.98-.68-1.27-1.22-.29-.53-.43-1.18-.43-1.95ZM319.55,7.07c0,.66.16,1.17.47,1.52.31.35.7.53,1.16.53s.85-.18,1.16-.53c.31-.35.47-.86.47-1.53s-.16-1.16-.47-1.51c-.31-.35-.7-.53-1.16-.53s-.85.18-1.16.53c-.31.35-.47.86-.47,1.52Z"/>
          <path class="cls-2" d="M326.19,1.2h5.63v1.46h-3.15c.36.33.96.78,1.8,1.34.54.36.93.68,1.16.93.23.26.41.58.55.97.14.39.21.79.21,1.22,0,.94-.29,1.75-.87,2.42s-1.42,1.01-2.53,1.01c-.76,0-1.36-.14-1.82-.42-.45-.28-.83-.69-1.15-1.23-.31-.54-.47-1.16-.47-1.85,0-.8.23-1.51.69-2.12.46-.61,1.06-.97,1.78-1.1-.47-.33-.78-.56-.95-.69l-.9-.7v-1.24ZM327.27,7.25c0,.63.16,1.11.49,1.45.33.34.73.51,1.2.51s.88-.18,1.22-.53c.34-.35.51-.85.51-1.49s-.17-1.14-.5-1.49c-.33-.35-.73-.53-1.19-.53-.54,0-.96.19-1.27.58-.31.39-.47.89-.47,1.5Z"/>
          <path class="cls-2" d="M333.39,6.97c0-.59.14-1.15.43-1.7.29-.55.7-.97,1.23-1.26.53-.29,1.12-.43,1.77-.43,1.01,0,1.84.33,2.48.98.64.66.97,1.48.97,2.48s-.33,1.85-.98,2.51c-.65.66-1.47,1-2.46,1-.61,0-1.19-.14-1.75-.41-.55-.28-.98-.68-1.27-1.22-.29-.53-.43-1.18-.43-1.95ZM335.2,7.07c0,.66.16,1.17.47,1.52.31.35.7.53,1.16.53s.85-.18,1.16-.53c.31-.35.47-.86.47-1.53s-.16-1.16-.47-1.51c-.31-.35-.7-.53-1.16-.53s-.85.18-1.16.53c-.31.35-.47.86-.47,1.52ZM335.84,2.92l.87-1.88h1.98l-1.73,1.88h-1.12Z"/>
          <path class="cls-2" d="M340.68,3.73h5.13v1.46h-1.63v5.21h-1.76v-5.21h-1.73v-1.46Z"/>
          <path class="cls-2" d="M353.09,12.94h-1.76v-5.94c0-.59-.02-1.01-.07-1.25-.05-.24-.16-.44-.34-.59-.18-.15-.41-.23-.68-.23-.33,0-.62.09-.87.28-.25.19-.41.43-.48.73-.07.3-.11.78-.11,1.44v3.02h-1.76V3.73h1.64v.98c.58-.75,1.32-1.13,2.2-1.13.51,0,.95.11,1.31.33.36.22.6.5.73.85.13.34.2.84.2,1.49v6.68Z"/>
          <path class="cls-2" d="M362.47,3.73v1.46h-1.61c.33.56.49,1.17.49,1.85,0,.97-.32,1.8-.95,2.48-.63.68-1.47,1.03-2.52,1.03s-1.84-.32-2.47-.95c-.63-.64-.95-1.47-.95-2.5s.31-1.86.93-2.52c.62-.66,1.46-.99,2.54-.99.31,0,.68.05,1.09.15h3.45ZM356.27,7.07c0,.64.15,1.14.46,1.5.31.36.7.55,1.17.55s.85-.18,1.16-.53c.31-.35.47-.87.47-1.55,0-.6-.15-1.09-.45-1.46-.3-.37-.69-.56-1.18-.56s-.87.18-1.18.55c-.3.36-.46.86-.46,1.5Z"/>
          <path class="cls-2" d="M369.74,12.94h-1.76v-5.94c0-.59-.02-1.01-.07-1.25-.05-.24-.16-.44-.34-.59-.18-.15-.41-.23-.68-.23-.33,0-.62.09-.87.28-.25.19-.41.43-.48.73-.07.3-.11.78-.11,1.44v3.02h-1.76V3.73h1.64v.98c.58-.75,1.32-1.13,2.2-1.13.51,0,.95.11,1.31.33.36.22.6.5.73.85.13.34.2.84.2,1.49v6.68Z"/>
          <path class="cls-2" d="M235.59,19.17h5.13v1.46h-1.63v5.21h-1.76v-5.21h-1.73v-1.46Z"/>
          <path class="cls-2" d="M248,28.37h-1.76v-5.94c0-.59-.02-1.01-.07-1.25-.05-.24-.16-.44-.34-.59-.18-.15-.41-.23-.68-.23-.33,0-.62.09-.87.28-.25.19-.41.43-.48.73-.07.3-.11.78-.11,1.44v3.02h-1.76v-6.67h1.64v.98c.58-.75,1.32-1.13,2.2-1.13.51,0,.95.11,1.31.33.36.22.6.5.73.85.13.34.2.84.2,1.49v6.68Z"/>
          <path class="cls-2" d="M255.35,19.32l-.36,1.48c-.47-.15-.91-.23-1.32-.23-.77,0-1.41.21-1.92.64-.51.43-.76.93-.76,1.52,0,.38.13.68.4.9.27.22.75.42,1.44.59.83.21,1.44.49,1.81.82.37.34.56.8.56,1.39,0,.65-.25,1.16-.76,1.54-.51.38-1.18.57-2,.57-.25,0-.64-.03-1.18-.09l.36-1.52c.35.09.64.13.88.13.26,0,.48-.06.66-.17.18-.11.27-.27.27-.47,0-.19-.08-.34-.24-.46-.16-.11-.45-.21-.89-.3-1.03-.22-1.78-.58-2.24-1.09-.46-.51-.69-1.1-.69-1.77s.18-1.26.53-1.87c.35-.6.85-1.07,1.48-1.42.63-.34,1.36-.51,2.16-.51.68,0,1.28.1,1.8.3Z"/>
          <path class="cls-2" d="M260.08,25.83v-9.21h6.83v1.56h-4.97v2.04h4.62v1.55h-4.62v2.51h5.14v1.55h-7Z"/>
          <path class="cls-2" d="M268.47,19.17h1.76v3.42c0,.82.12,1.35.35,1.59.23.25.53.37.89.37.42,0,.73-.14.94-.43.2-.29.3-.8.3-1.54v-3.42h1.76v3.13c0,.9-.1,1.59-.3,2.09-.2.5-.53.89-1,1.17-.47.28-1.03.43-1.68.43-.69,0-1.28-.15-1.76-.45-.48-.3-.81-.69-.99-1.19-.19-.49-.28-1.18-.28-2.05v-3.13Z"/>
          <path class="cls-2" d="M277.72,25.43v2.95h-1.76v-5.25c0-.95.1-1.7.29-2.25.19-.55.55-1,1.06-1.34.51-.34,1.13-.51,1.85-.51,1.08,0,1.93.35,2.57,1.04.64.7.95,1.53.95,2.51s-.31,1.76-.92,2.43c-.61.66-1.37,1-2.26,1-.59,0-1.18-.19-1.78-.56ZM277.72,22.7c0,.55.14,1,.42,1.34.28.34.66.51,1.14.51s.86-.19,1.15-.57c.29-.38.44-.88.44-1.49s-.14-1.12-.41-1.49c-.27-.36-.66-.55-1.16-.55-.44,0-.81.16-1.12.49-.31.33-.46.91-.46,1.76Z"/>
          <path class="cls-2" d="M284.61,19.17h1.68c-.55,1.14-.82,2.32-.82,3.52,0,.69.12,1.18.37,1.47.24.29.53.44.87.44.23,0,.43-.07.61-.21.17-.14.29-.32.34-.53.05-.21.08-.53.08-.96v-2.02h1.76v2.02c0,.41.02.73.07.95.05.22.16.4.34.54.18.14.38.21.61.21.35,0,.65-.15.88-.46.24-.31.35-.81.35-1.52,0-.48-.07-1.04-.21-1.68-.14-.64-.35-1.23-.61-1.77h1.68c.23.39.45.92.65,1.6.2.68.3,1.3.3,1.86,0,.98-.26,1.78-.78,2.41-.52.63-1.2.95-2.05.95-1.01,0-1.72-.47-2.12-1.4-.4.93-1.11,1.4-2.12,1.4-.85,0-1.53-.32-2.05-.95-.52-.63-.78-1.44-.78-2.41,0-.57.1-1.19.3-1.86.2-.68.42-1.21.65-1.6Z"/>
          <path class="cls-2" d="M293.98,19.17h9.24v1.46h-1.77v5.21h-1.76v-5.21h-2.17v5.21h-1.76v-5.21h-1.77v-1.46Z"/>
          <path class="cls-2" d="M309.13,19.17h1.51c-.24.49-.44,1.11-.6,1.86-.16.76-.24,1.28-.24,1.59,0,.39.07.9.22,1.53.15.63.33,1.19.55,1.7h-1.48c-.02-.08-.06-.2-.11-.35-.09-.25-.16-.5-.23-.75-.51.84-1.25,1.26-2.2,1.26-.9,0-1.61-.37-2.13-1.1-.52-.73-.78-1.58-.78-2.56,0-.92.26-1.7.77-2.35.51-.64,1.23-.97,2.15-.97s1.63.43,2.19,1.3c.08-.31.2-.69.37-1.15ZM305.46,22.52c0,.62.13,1.11.39,1.5.26.38.6.57,1.02.57s.73-.17.99-.51c.26-.34.38-.86.38-1.56s-.14-1.21-.41-1.57c-.27-.36-.6-.53-.99-.53s-.73.18-1,.55c-.26.37-.39.89-.39,1.55Z"/>
          <path class="cls-2" d="M310.75,17.98v-1.51h1.51v1.51h-1.51ZM311.99,25.83v-6.67h1.76v6.67h-1.76ZM313.45,17.98v-1.51h1.52v1.51h-1.52Z"/>
          <path class="cls-2" d="M315.53,19.17h1.76v2.31l2.06-2.31h2.15l-2.68,2.83,2.89,3.84h-2.07l-1.95-2.66-.4.43v2.24h-1.76v-6.67Z"/>
          <path class="cls-2" d="M328.78,28.37h-1.76v-5.94c0-.59-.02-1.01-.07-1.25-.05-.24-.16-.44-.34-.59-.18-.15-.41-.23-.68-.23-.33,0-.62.09-.87.28-.25.19-.41.43-.48.73-.07.3-.11.78-.11,1.44v3.02h-1.76v-6.67h1.64v.98c.58-.75,1.32-1.13,2.2-1.13.51,0,.95.11,1.31.33.36.22.6.5.73.85.13.34.2.84.2,1.49v6.68ZM324.78,18.35l.87-1.88h1.98l-1.73,1.88h-1.12Z"/>
          <path class="cls-2" d="M336.14,19.32l-.36,1.48c-.47-.15-.91-.23-1.32-.23-.77,0-1.41.21-1.92.64-.51.43-.76.93-.76,1.52,0,.38.13.68.4.9.27.22.75.42,1.44.59.83.21,1.44.49,1.81.82.37.34.56.8.56,1.39,0,.65-.25,1.16-.76,1.54-.51.38-1.18.57-2,.57-.25,0-.64-.03-1.18-.09l.36-1.52c.35.09.64.13.88.13.26,0,.48-.06.66-.17.18-.11.27-.27.27-.47,0-.19-.08-.34-.24-.46-.16-.11-.45-.21-.89-.3-1.03-.22-1.78-.58-2.24-1.09-.46-.51-.69-1.1-.69-1.77s.18-1.26.53-1.87c.35-.6.85-1.07,1.48-1.42.63-.34,1.36-.51,2.16-.51.68,0,1.28.1,1.8.3Z"/>
          <path class="cls-2" d="M339.5,18.26l1-1.63h2.34l-2.07,1.63h-1.28ZM343.26,25.83v-9.21h6.83v1.56h-4.97v2.04h4.63v1.55h-4.63v2.51h5.15v1.55h-7Z"/>
          <path class="cls-2" d="M353.66,25.83l-2.69-6.67h1.85l1.26,3.4.36,1.14c.1-.29.16-.48.18-.57.06-.19.12-.38.19-.57l1.27-3.4h1.81l-2.65,6.67h-1.59Z"/>
          <path class="cls-2" d="M359.49,19.17h1.68c-.55,1.14-.82,2.32-.82,3.52,0,.69.12,1.18.37,1.47.24.29.53.44.87.44.23,0,.43-.07.61-.21s.29-.32.34-.53c.05-.21.08-.53.08-.96v-2.02h1.76v2.02c0,.41.02.73.07.95.05.22.16.4.34.54s.38.21.61.21c.35,0,.65-.15.88-.46.24-.31.35-.81.35-1.52,0-.48-.07-1.04-.21-1.68-.14-.64-.35-1.23-.61-1.77h1.68c.23.39.45.92.65,1.6.2.68.3,1.3.3,1.86,0,.98-.26,1.78-.78,2.41-.52.63-1.2.95-2.05.95-1.01,0-1.72-.47-2.12-1.4-.4.93-1.11,1.4-2.12,1.4-.85,0-1.53-.32-2.05-.95-.52-.63-.78-1.44-.78-2.41,0-.57.1-1.19.3-1.86.2-.68.42-1.21.65-1.6Z"/>
          <path class="cls-2" d="M377.41,19.17v1.46h-1.61c.33.56.49,1.17.49,1.85,0,.97-.32,1.8-.95,2.48-.63.68-1.47,1.03-2.52,1.03s-1.84-.32-2.47-.95c-.63-.64-.95-1.47-.95-2.5s.31-1.86.93-2.52c.62-.66,1.46-.99,2.54-.99.31,0,.68.05,1.09.15h3.45ZM371.22,22.5c0,.64.15,1.14.46,1.5.31.36.7.55,1.17.55s.85-.18,1.16-.53c.31-.35.47-.87.47-1.55,0-.6-.15-1.09-.45-1.46-.3-.37-.69-.56-1.18-.56s-.87.18-1.18.55c-.3.36-.46.86-.46,1.5Z"/>
          <path class="cls-2" d="M384.69,28.37h-1.76v-5.94c0-.59-.02-1.01-.07-1.25-.05-.24-.16-.44-.34-.59-.18-.15-.41-.23-.68-.23-.33,0-.62.09-.87.28-.25.19-.41.43-.48.73-.07.3-.11.78-.11,1.44v3.02h-1.76v-6.67h1.64v.98c.58-.75,1.32-1.13,2.2-1.13.51,0,.95.11,1.31.33.36.22.6.5.73.85.13.34.2.84.2,1.49v6.68Z"/>
          <path class="cls-2" d="M392.04,19.32l-.36,1.48c-.47-.15-.91-.23-1.32-.23-.77,0-1.41.21-1.92.64-.51.43-.76.93-.76,1.52,0,.38.13.68.4.9.27.22.75.42,1.44.59.83.21,1.44.49,1.81.82.37.34.56.8.56,1.39,0,.65-.25,1.16-.76,1.54-.51.38-1.18.57-2,.57-.25,0-.64-.03-1.18-.09l.36-1.52c.35.09.64.13.88.13.26,0,.48-.06.66-.17.18-.11.27-.27.27-.47,0-.19-.08-.34-.24-.46-.16-.11-.45-.21-.89-.3-1.03-.22-1.78-.58-2.24-1.09-.46-.51-.69-1.1-.69-1.77s.18-1.26.53-1.87c.35-.6.85-1.07,1.48-1.42.63-.34,1.36-.51,2.16-.51.68,0,1.28.1,1.8.3Z"/>
        </g>
        <g>
          <path class="cls-2" d="M236.23,42.4v-7.96h1.08l4.18,6.25v-6.25h1.01v7.96h-1.08l-4.18-6.25v6.25h-1.01Z"/>
          <path class="cls-2" d="M248.09,40.54l1.01.12c-.16.59-.45,1.05-.88,1.37-.43.33-.98.49-1.65.49-.84,0-1.51-.26-2.01-.78-.49-.52-.74-1.25-.74-2.19s.25-1.72.75-2.26c.5-.54,1.15-.8,1.94-.8s1.4.26,1.89.79c.49.52.73,1.26.73,2.21,0,.06,0,.14,0,.26h-4.3c.04.63.21,1.12.54,1.46.32.34.72.5,1.21.5.36,0,.66-.09.92-.28.25-.19.45-.49.6-.9ZM244.88,38.96h3.22c-.04-.48-.17-.85-.37-1.09-.31-.38-.71-.56-1.21-.56-.45,0-.83.15-1.13.45-.31.3-.47.7-.51,1.21Z"/>
          <path class="cls-2" d="M249.67,42.4l2.11-3-1.95-2.77h1.22l.88,1.35c.17.26.3.47.4.65.16-.24.31-.45.44-.64l.97-1.36h1.17l-1.99,2.71,2.14,3.05h-1.2l-1.18-1.79-.31-.48-1.51,2.27h-1.18Z"/>
          <path class="cls-2" d="M258.02,41.52l.14.86c-.27.06-.52.09-.74.09-.35,0-.63-.06-.82-.17-.2-.11-.33-.26-.41-.44-.08-.18-.12-.57-.12-1.15v-3.32h-.72v-.76h.72v-1.43l.97-.59v2.01h.98v.76h-.98v3.37c0,.28.02.46.05.54.03.08.09.14.17.19.08.05.19.07.33.07.11,0,.25-.01.43-.04Z"/>
          <path class="cls-2" d="M262.82,39.28v-.93h3.37s0,2.95,0,2.95c-.52.41-1.05.72-1.6.93-.55.21-1.12.31-1.69.31-.78,0-1.49-.17-2.13-.5-.64-.34-1.12-.82-1.45-1.45-.33-.63-.49-1.34-.49-2.12s.16-1.5.49-2.17c.32-.67.79-1.17,1.4-1.5.61-.33,1.31-.49,2.1-.49.58,0,1.1.09,1.56.28.46.19.83.45,1.09.78.26.33.46.77.6,1.3l-.95.26c-.12-.41-.27-.72-.45-.96-.18-.23-.43-.42-.76-.56s-.69-.21-1.1-.21c-.48,0-.9.07-1.25.22-.35.15-.63.34-.85.58-.21.24-.38.5-.5.79-.2.49-.3,1.03-.3,1.6,0,.71.12,1.3.37,1.78.24.48.6.83,1.07,1.06.47.23.96.35,1.49.35.46,0,.9-.09,1.34-.26.43-.18.76-.36.99-.56v-1.48h-2.34Z"/>
          <path class="cls-2" d="M271.57,40.54l1.01.12c-.16.59-.45,1.05-.88,1.37s-.98.49-1.65.49c-.84,0-1.51-.26-2.01-.78-.49-.52-.74-1.25-.74-2.19s.25-1.72.75-2.26c.5-.54,1.15-.8,1.94-.8s1.4.26,1.89.79c.49.52.73,1.26.73,2.21,0,.06,0,.14,0,.26h-4.3c.04.63.21,1.12.54,1.46.32.34.72.5,1.21.5.36,0,.66-.09.92-.28.25-.19.45-.49.6-.9ZM268.36,38.96h3.22c-.04-.48-.17-.85-.37-1.09-.31-.38-.71-.56-1.21-.56-.45,0-.83.15-1.13.45s-.47.7-.51,1.21Z"/>
          <path class="cls-2" d="M273.8,42.4v-5.76h.88v.82c.42-.63,1.04-.95,1.83-.95.35,0,.67.06.96.19.29.12.51.29.65.49.14.2.25.44.3.72.04.18.05.5.05.95v3.54h-.98v-3.51c0-.4-.04-.7-.11-.89-.08-.2-.21-.36-.4-.47-.19-.12-.42-.18-.68-.18-.42,0-.78.13-1.08.4-.3.26-.45.77-.45,1.5v3.15h-.98Z"/>
          <path class="cls-2" d="M283.93,40.54l1.01.12c-.16.59-.45,1.05-.88,1.37-.43.33-.98.49-1.65.49-.84,0-1.51-.26-2.01-.78-.49-.52-.74-1.25-.74-2.19s.25-1.72.75-2.26c.5-.54,1.15-.8,1.94-.8s1.4.26,1.89.79c.49.52.73,1.26.73,2.21,0,.06,0,.14,0,.26h-4.3c.04.63.21,1.12.54,1.46.32.34.72.5,1.21.5.36,0,.66-.09.92-.28.25-.19.45-.49.6-.9ZM280.72,38.96h3.22c-.04-.48-.17-.85-.37-1.09-.31-.38-.71-.56-1.21-.56-.45,0-.83.15-1.13.45-.31.3-.47.7-.51,1.21Z"/>
          <path class="cls-2" d="M286.16,42.4v-5.76h.88v.87c.22-.41.43-.68.62-.81.19-.13.4-.2.63-.2.33,0,.66.1,1,.31l-.34.91c-.24-.14-.48-.21-.72-.21-.21,0-.41.06-.58.19s-.29.31-.36.53c-.11.35-.16.73-.16,1.14v3.02h-.98Z"/>
          <path class="cls-2" d="M293.63,41.69c-.36.31-.71.52-1.04.65-.33.13-.69.19-1.08.19-.63,0-1.12-.15-1.46-.46-.34-.31-.51-.7-.51-1.19,0-.28.06-.54.19-.77.13-.23.3-.42.5-.56.21-.14.44-.25.7-.32.19-.05.48-.1.87-.15.79-.09,1.37-.21,1.74-.34,0-.13,0-.22,0-.25,0-.4-.09-.68-.28-.84-.25-.22-.62-.33-1.11-.33-.46,0-.8.08-1.02.24-.22.16-.38.45-.49.85l-.96-.13c.09-.41.23-.74.43-.99.2-.25.49-.44.86-.58.38-.14.81-.2,1.31-.2s.89.06,1.2.17c.31.12.53.26.68.44.15.18.25.4.3.67.03.17.05.47.05.9v1.3c0,.91.02,1.48.06,1.72.04.24.12.47.25.69h-1.02c-.1-.2-.17-.44-.2-.71ZM293.55,39.5c-.35.14-.89.27-1.6.37-.4.06-.69.12-.85.2-.17.07-.29.18-.38.32-.09.14-.14.29-.14.46,0,.26.1.48.3.65.2.17.49.26.87.26s.71-.08,1-.25c.29-.16.51-.39.65-.68.1-.22.16-.55.16-.98v-.36Z"/>
          <path class="cls-2" d="M298.19,41.52l.14.86c-.27.06-.52.09-.74.09-.35,0-.63-.06-.82-.17-.2-.11-.33-.26-.41-.44-.08-.18-.12-.57-.12-1.15v-3.32h-.72v-.76h.72v-1.43l.97-.59v2.01h.98v.76h-.98v3.37c0,.28.02.46.05.54.03.08.09.14.17.19.08.05.19.07.33.07.11,0,.25-.01.43-.04Z"/>
          <path class="cls-2" d="M299.15,35.56v-1.12h.98v1.12h-.98ZM299.15,42.4v-5.76h.98v5.76h-.98Z"/>
          <path class="cls-2" d="M301.25,39.51c0-1.07.3-1.86.89-2.37.5-.43,1.1-.64,1.81-.64.79,0,1.44.26,1.94.78.5.52.75,1.24.75,2.15,0,.74-.11,1.33-.33,1.75-.22.43-.55.76-.97.99-.43.24-.89.35-1.39.35-.81,0-1.46-.26-1.96-.78-.5-.52-.75-1.26-.75-2.24ZM302.25,39.51c0,.74.16,1.29.48,1.66s.73.55,1.22.55.89-.18,1.21-.55c.32-.37.48-.93.48-1.69,0-.71-.16-1.25-.49-1.62-.32-.37-.73-.55-1.21-.55s-.89.18-1.22.55c-.32.37-.48.92-.48,1.66Z"/>
          <path class="cls-2" d="M307.8,42.4v-5.76h.88v.82c.42-.63,1.04-.95,1.84-.95.35,0,.67.06.96.19.29.12.51.29.65.49.14.2.25.44.3.72.04.18.05.5.05.95v3.54h-.98v-3.51c0-.4-.04-.7-.11-.89-.08-.2-.21-.36-.4-.47-.19-.12-.42-.18-.68-.18-.42,0-.78.13-1.08.4-.3.26-.45.77-.45,1.5v3.15h-.98Z"/>
          <path class="cls-2" d="M314.12,42.4v-7.96h5.75v.94h-4.7v2.44h4.4v.93h-4.4v2.71h4.89v.94h-5.94Z"/>
          <path class="cls-2" d="M326.74,34.44h1.05v4.6c0,.8-.09,1.43-.27,1.91-.18.47-.51.85-.98,1.15-.47.3-1.09.44-1.86.44s-1.36-.13-1.83-.39c-.47-.26-.81-.63-1.02-1.12-.2-.49-.3-1.15-.3-1.99v-4.6h1.05v4.59c0,.69.06,1.2.19,1.53.13.33.35.58.66.76.31.18.7.27,1.15.27.77,0,1.33-.18,1.66-.53.33-.35.49-1.03.49-2.02v-4.59Z"/>
        </g>
      </g>
      <g>
        <g>
          <polygon class="cls-2" points="32.57 31.97 30.48 31.97 30.48 32.89 32.02 32.89 32.02 33.66 30.48 33.66 30.48 34.79 32.65 34.79 32.65 35.62 29.56 35.62 29.56 31.15 32.57 31.15 32.57 31.97"/>
          <path class="cls-2" d="M35.36,31.06c.66,0,1.22.22,1.69.67.47.45.7,1,.7,1.65s-.23,1.21-.7,1.65c-.47.45-1.03.67-1.69.67s-1.22-.22-1.68-.67c-.46-.45-.69-1-.69-1.65s.23-1.21.69-1.65c.46-.45,1.02-.67,1.68-.67M35.37,31.86c-.43,0-.79.14-1.06.43-.28.28-.41.65-.41,1.1s.14.8.42,1.09c.28.28.63.43,1.06.43s.79-.14,1.07-.43c.28-.29.43-.65.43-1.09s-.14-.81-.43-1.1c-.28-.28-.64-.43-1.08-.43h0ZM36.19,33.71h-1.64v-.75h1.64v.75Z"/>
          <polygon class="cls-2" points="42.26 31.15 42.26 35.7 41.95 35.7 39.36 32.94 39.36 35.62 38.45 35.62 38.45 31.06 38.75 31.06 41.34 33.81 41.34 31.15 42.26 31.15"/>
          <rect class="cls-2" x="43.21" y="31.15" width=".92" height="4.47"/>
          <polygon class="cls-2" points="47.92 35.62 46 33.29 46 35.62 45.08 35.62 45.08 31.15 46 31.15 46 33.23 47.71 31.15 48.8 31.15 47.08 33.25 49.02 35.62 47.92 35.62"/>
          <path class="cls-2" d="M51.33,31.06c.65,0,1.22.22,1.69.67.47.45.7,1,.7,1.65s-.23,1.21-.7,1.65c-.47.45-1.03.67-1.69.67s-1.22-.22-1.68-.67c-.46-.45-.69-1-.69-1.65s.23-1.21.69-1.65c.46-.45,1.02-.67,1.68-.67M51.33,31.92c-.42,0-.76.14-1.03.41-.27.28-.41.63-.41,1.06s.14.78.41,1.06c.27.27.62.41,1.04.41s.76-.14,1.03-.41c.27-.28.41-.63.41-1.06s-.14-.78-.41-1.06c-.27-.28-.61-.41-1.02-.41h-.01Z"/>
          <polygon class="cls-2" points="59.12 34.79 59.12 35.62 55.77 35.62 55.77 35.42 57.12 33.33 55.77 31.34 55.77 31.15 59.04 31.15 59.04 31.97 57.26 31.97 58.14 33.23 58.14 33.42 57.24 34.79 59.12 34.79"/>
          <polygon class="cls-2" points="62.36 35.62 61.41 34.14 60.46 35.62 59.42 35.62 60.9 33.34 59.51 31.15 60.55 31.15 61.41 32.56 62.26 31.15 63.3 31.15 61.93 33.34 63.4 35.62 62.36 35.62"/>
          <polygon class="cls-2" points="66.95 31.97 64.85 31.97 64.85 32.89 66.39 32.89 66.39 33.66 64.85 33.66 64.85 34.79 67.03 34.79 67.03 35.62 63.94 35.62 63.94 31.15 66.95 31.15 66.95 31.97"/>
          <path class="cls-2" d="M71.62,35.62h-4.3l2-4.55h.31l1.99,4.55ZM69.48,32.91l-.81,1.88h1.62l-.81-1.88Z"/>
          <rect class="cls-2" x="72.17" y="31.15" width=".91" height="4.47"/>
          <path class="cls-2" d="M76.15,31.06c.65,0,1.22.22,1.69.67.46.45.7,1,.7,1.65s-.23,1.21-.7,1.65c-.47.45-1.03.67-1.69.67s-1.22-.22-1.68-.67c-.46-.45-.69-1-.69-1.65s.23-1.21.69-1.65c.46-.45,1.02-.67,1.68-.67M76.14,31.92c-.42,0-.76.14-1.03.41-.27.28-.41.63-.41,1.06s.14.78.41,1.06c.27.27.62.41,1.04.41s.76-.14,1.03-.41c.27-.28.41-.63.41-1.06s-.13-.78-.41-1.06c-.27-.28-.61-.41-1.02-.41h-.01Z"/>
          <path class="cls-2" d="M83.17,35.04h-1.83l-.25.58h-.98l2-4.55h.3l1.99,4.55h-.98l-.25-.58ZM82.25,32.78l-.59,1.51h1.18l-.59-1.51Z"/>
          <polygon class="cls-2" points="88.75 31.15 88.75 35.7 88.44 35.7 85.86 32.94 85.86 35.62 84.94 35.62 84.94 31.06 85.24 31.06 87.83 33.81 87.83 31.15 88.75 31.15"/>
          <path class="cls-2" d="M92.34,35.04h-1.83l-.25.58h-.98l2-4.55h.31l1.99,4.55h-.98l-.25-.58ZM91.43,32.78l-.59,1.51h1.18l-.59-1.51Z"/>
          <polygon class="cls-2" points="96.95 35.62 95.03 33.29 95.03 35.62 94.12 35.62 94.12 31.15 95.03 31.15 95.03 33.23 96.74 31.15 97.83 31.15 96.12 33.25 98.06 35.62 96.95 35.62"/>
          <path class="cls-2" d="M101.23,35.04h-1.83l-.25.58h-.98l2-4.55h.31l1.99,4.55h-.98l-.25-.58ZM100.31,32.78l-.59,1.51h1.18l-.59-1.51Z"/>
          <polygon class="cls-2" points="107.38 31.06 107.38 35.62 106.47 35.62 106.47 33.23 105.34 34.64 105.04 34.64 103.92 33.23 103.92 35.62 103 35.62 103 31.06 103.3 31.06 105.19 33.49 107.08 31.06 107.38 31.06"/>
          <path class="cls-2" d="M111.15,33.82c.34,0,.61-.09.82-.26.2-.17.31-.42.31-.75v-1.66h.92v1.74c0,.56-.19,1-.56,1.3-.38.3-.87.45-1.49.45v.98h-.91v-.98c-.62,0-1.11-.15-1.48-.45-.37-.3-.56-.73-.56-1.3v-1.74h.92v1.66c0,.33.1.59.31.75.2.17.47.25.81.25v-2.82h.91v2.83Z"/>
          <polygon class="cls-2" points="117.8 35.62 116.88 35.62 116.88 33.69 114.9 33.69 114.9 35.62 113.99 35.62 113.99 31.15 114.9 31.15 114.9 32.86 116.88 32.86 116.88 31.15 117.8 31.15 117.8 35.62"/>
          <polygon class="cls-2" points="121.82 34.79 121.82 35.62 118.47 35.62 118.47 35.42 119.82 33.33 118.47 31.34 118.47 31.15 121.74 31.15 121.74 31.97 119.97 31.97 120.85 33.23 120.85 33.42 119.94 34.79 121.82 34.79"/>
          <polygon class="cls-2" points="43.81 42.4 41.9 40.06 41.9 42.4 40.98 42.4 40.98 37.92 41.9 37.92 41.9 40 43.6 37.92 44.69 37.92 42.98 40.03 44.92 42.4 43.81 42.4"/>
          <path class="cls-2" d="M48.09,41.81h-1.83l-.25.58h-.98l2-4.55h.31l1.99,4.55h-.98l-.25-.58ZM47.18,39.56l-.59,1.5h1.18l-.59-1.5Z"/>
          <rect class="cls-2" x="49.86" y="37.92" width=".92" height="4.47"/>
          <path class="cls-2" d="M55.86,41.81h-1.83l-.25.58h-.98l2-4.55h.31l1.99,4.55h-.98l-.25-.58ZM54.95,39.56l-.59,1.5h1.18l-.59-1.5Z"/>
          <polygon class="cls-2" points="61.45 37.92 61.45 42.48 61.14 42.48 58.55 39.71 58.55 42.4 57.64 42.4 57.64 37.84 57.94 37.84 60.53 40.59 60.53 37.92 61.45 37.92"/>
          <path class="cls-2" d="M64.52,37.84c.66,0,1.22.22,1.69.67.47.45.7,1,.7,1.65s-.23,1.21-.7,1.65c-.47.45-1.03.67-1.69.67s-1.22-.22-1.68-.67c-.46-.45-.69-1-.69-1.65s.23-1.21.69-1.65c.46-.45,1.02-.67,1.68-.67M64.52,38.64c-.43,0-.79.14-1.06.43-.28.28-.41.65-.41,1.1s.14.8.42,1.09c.28.28.63.43,1.06.43s.79-.14,1.07-.43c.28-.29.43-.65.43-1.09s-.14-.81-.43-1.1c-.28-.28-.64-.43-1.08-.43h0ZM65.35,40.49h-1.64v-.75h1.64v.75Z"/>
          <polygon class="cls-2" points="70.62 38.75 68.52 38.75 68.52 39.67 70.06 39.67 70.06 40.44 68.52 40.44 68.52 41.57 70.7 41.57 70.7 42.4 67.61 42.4 67.61 37.92 70.62 37.92 70.62 38.75"/>
          <polygon class="cls-2" points="74.26 42.4 72.34 40.06 72.34 42.4 71.42 42.4 71.42 37.92 72.34 37.92 72.34 40 74.05 37.92 75.14 37.92 73.42 40.03 75.36 42.4 74.26 42.4"/>
          <polygon class="cls-2" points="79.26 38.75 77.82 38.75 77.82 42.4 76.91 42.4 76.91 38.75 75.48 38.75 75.48 37.92 79.26 37.92 79.26 38.75"/>
          <rect class="cls-2" x="79.79" y="37.92" width=".92" height="4.47"/>
          <polygon class="cls-2" points="84.5 42.4 82.58 40.06 82.58 42.4 81.66 42.4 81.66 37.92 82.58 37.92 82.58 40 84.29 37.92 85.38 37.92 83.66 40.03 85.6 42.4 84.5 42.4"/>
          <path class="cls-2" d="M87.91,37.84c.66,0,1.22.22,1.69.67.47.45.7,1,.7,1.65s-.23,1.21-.7,1.65c-.47.45-1.03.67-1.69.67s-1.22-.22-1.68-.67c-.46-.45-.69-1-.69-1.65s.23-1.21.69-1.65c.46-.45,1.02-.67,1.68-.67M87.91,38.7c-.42,0-.76.14-1.03.41-.27.28-.41.63-.41,1.06s.14.78.41,1.06c.27.27.62.41,1.04.41s.76-.14,1.03-.41c.27-.28.41-.63.41-1.06s-.14-.78-.41-1.06c-.27-.28-.61-.41-1.02-.41h-.01Z"/>
          <polygon class="cls-2" points="94.24 38.75 92.8 38.75 92.8 42.4 91.88 42.4 91.88 38.75 90.45 38.75 90.45 37.92 94.24 37.92 94.24 38.75"/>
          <polygon class="cls-2" points="98.58 42.4 97.67 42.4 97.67 40.46 95.69 40.46 95.69 42.4 94.77 42.4 94.77 37.92 95.69 37.92 95.69 39.64 97.67 39.64 97.67 37.92 98.58 37.92 98.58 42.4"/>
          <polygon class="cls-2" points="102.9 38.75 101.46 38.75 101.46 42.4 100.55 42.4 100.55 38.75 99.12 38.75 99.12 37.92 102.9 37.92 102.9 38.75"/>
          <path class="cls-2" d="M105.56,41.81h-1.83l-.25.58h-.98l2-4.55h.31l1.99,4.55h-.98l-.25-.58ZM104.65,39.56l-.59,1.5h1.18l-.59-1.5Z"/>
          <polygon class="cls-2" points="110.41 41.57 110.41 42.4 107.06 42.4 107.06 42.2 108.41 40.11 107.06 38.12 107.06 37.92 110.33 37.92 110.33 38.75 108.55 38.75 109.43 40 109.43 40.2 108.52 41.57 110.41 41.57"/>
        </g>
        <g>
          <polygon class="cls-2" points="13.49 8.55 4.1 8.55 4.1 12.65 11 12.65 11 16.12 4.1 16.12 4.1 21.19 13.86 21.19 13.86 24.9 0 24.9 0 4.84 13.49 4.84 13.49 8.55"/>
          <path class="cls-2" d="M45.62,21.46c-.71,0-1.22-.41-1.52-1.25l-4.95-13.91c-.61-1.7-1.39-2.89-2.34-3.56-.95-.67-2.16-1-3.62-1-.81,0-1.57.11-2.28.34v3.46c.67-.06,1.19-.09,1.58-.09.73,0,1.35.17,1.85.52.49.34.88.92,1.18,1.73l.55,1.64-4.92,12.12h-.18c-.71,0-1.22-.41-1.52-1.25l-4.95-13.91c-.61-1.7-1.39-2.89-2.34-3.56-.95-.67-2.16-1-3.62-1-.81,0-1.57.11-2.28.34v3.46c.67-.06,1.19-.09,1.58-.09.73,0,1.35.17,1.85.52.49.34.88.92,1.19,1.73l.55,1.64-6.32,15.56h4.32l4.01-10.76,2.58,7.81c.37,1.13.85,1.96,1.46,2.46.63.53,1.43.79,2.4.79.61,0,4.19-.3,4.19-.3l4.01-10.76,2.58,7.81c.37,1.13.85,1.96,1.46,2.46.63.53,1.43.79,2.4.79.61,0,1.21-.1,1.82-.3v-3.44h-.73Z"/>
          <path class="cls-2" d="M63.98,21.65h.42c.14,0,.29,0,.46-.03v3.38c-.63.2-1.38.3-2.25.3-1.86,0-3.06-.77-3.61-2.32-1.05,1.59-2.69,2.38-4.89,2.38-2.07,0-3.77-.75-5.11-2.25-1.34-1.48-2.01-3.36-2.01-5.65s.67-4.15,2.01-5.65c1.34-1.5,3.05-2.25,5.12-2.25,2.21,0,3.86.82,4.93,2.46,0-.1,0-.24.02-.41,0-.17.03-.38.05-.62.02-.47.05-.84.09-1.13h3.78c-.1,1.52-.18,2.87-.23,4.04-.05,1.17-.08,2.18-.08,3.03v2.77c0,1.24.45,1.86,1.34,1.86l-.03.09ZM54.81,21.68c1.02,0,1.9-.35,2.65-1.07.73-.69,1.1-1.72,1.1-3.08s-.37-2.35-1.1-3.08c-.73-.73-1.62-1.1-2.65-1.1s-1.96.38-2.65,1.13c-.71.77-1.07,1.78-1.07,3.02s.36,2.25,1.07,3.02c.69.75,1.58,1.13,2.65,1.13v.03ZM56.35,7.55h-3.01V1.2h4.86v.73l-1.85,5.62Z"/>
          <path class="cls-2" d="M79.36,11.44c1.74,1.93,2.61,3.9,2.61,5.93,0,2.23-.79,4.1-2.37,5.62-1.58,1.52-3.5,2.28-5.74,2.28s-4.14-.76-5.68-2.28c-1.54-1.52-2.31-3.4-2.31-5.65,0-2.03.64-3.73,1.91-5.11,1.28-1.38,2.91-2.19,4.89-2.43l-5.99-6.6v-1.09h14.25v3.46h-6.93l5.38,5.9-.03-.03ZM73.85,21.56c1.13,0,2.07-.39,2.8-1.19.73-.79,1.09-1.77,1.09-2.95s-.37-2.15-1.1-2.92c-.73-.77-1.66-1.16-2.78-1.16s-2.07.39-2.81,1.16c-.73.77-1.1,1.74-1.1,2.92s.37,2.17,1.1,2.92c.74.77,1.67,1.15,2.82,1.15l-.03.06Z"/>
          <path class="cls-2" d="M100.72,21.65h.43c.14,0,.29-.01.46-.03v3.38c-.63.2-1.38.3-2.25.3-1.86,0-3.06-.77-3.61-2.32-1.05,1.59-2.69,2.38-4.89,2.38-2.07,0-3.77-.75-5.11-2.25-1.34-1.48-2.01-3.36-2.01-5.65s.67-4.15,2.01-5.65c1.34-1.5,3.05-2.25,5.12-2.25,2.21,0,3.86.82,4.93,2.46,0-.1,0-.24.02-.41,0-.17.02-.38.05-.62.02-.47.05-.84.09-1.13h3.77c-.1,1.52-.18,2.87-.23,4.04-.05,1.17-.08,2.18-.08,3.03v2.77c0,1.24.45,1.86,1.34,1.86l-.03.09ZM91.56,21.68c1.02,0,1.9-.35,2.66-1.07.73-.69,1.1-1.72,1.1-3.08s-.37-2.35-1.1-3.08c-.73-.73-1.62-1.1-2.66-1.1s-1.96.38-2.66,1.13c-.71.77-1.07,1.78-1.07,3.02s.36,2.25,1.07,3.02c.69.75,1.58,1.13,2.66,1.13v.03Z"/>
          <path class="cls-3" d="M125.13,21.41v3.5l-14.8.03v-.88l7.17-7.78c.99-1.05,1.72-1.97,2.19-2.74.44-.75.67-1.51.67-2.28,0-.89-.25-1.6-.76-2.13-.53-.55-1.21-.82-2.04-.82s-1.53.28-2.04.85c-.51.57-.76,1.31-.76,2.22,0,.18.01.39.05.64.03.24.06.52.11.82h-4.13c-.14-.51-.21-1.07-.21-1.7,0-1.74.66-3.29,1.98-4.65,1.3-1.34,3-2.01,5.1-2.01s3.67.61,4.98,1.82c1.32,1.22,1.98,2.75,1.98,4.59,0,1.34-.36,2.59-1.09,3.77-.75,1.22-1.82,2.55-3.22,4.01l-2.58,2.73h7.42Z"/>
          <path class="cls-4" d="M130.26,19.61c.79,0,1.46.27,2.01.82s.82,1.22.82,2.01-.26,1.47-.79,2.04c-.53.55-1.2.82-2.01.82s-1.49-.27-2.04-.82c-.55-.55-.82-1.22-.82-2.04s.27-1.46.82-2.01c.55-.55,1.23-.82,2.04-.82h-.03Z"/>
          <path class="cls-1" d="M143.48,4.48c2.59,0,4.56.94,5.9,2.83,1.34,1.89,2.01,4.36,2.01,7.42s-.68,5.6-2.04,7.57c-1.38,1.99-3.35,2.98-5.93,2.98s-4.55-.99-5.93-2.98c-1.36-1.97-2.04-4.49-2.04-7.57s.68-5.55,2.04-7.42c1.36-1.88,3.33-2.83,5.93-2.83h.06ZM143.48,8.28c-2.49,0-3.74,2.16-3.74,6.47s1.25,6.72,3.74,6.72,3.71-2.24,3.71-6.72-1.24-6.47-3.71-6.47"/>
        </g>
      </g>
    </g>
  </g>
</svg>