<?xml version="1.0" encoding="UTF-8"?>
<svg id="Group_120" xmlns="http://www.w3.org/2000/svg" width="256" height="55.5" version="1.1" viewBox="0 0 256 55.5">
  <!-- Generator: Adobe Illustrator 30.3.0, SVG Export Plug-In . SVG Version: 2.1.3 Build 182)  -->
  <g>
    <path id="Path_167" d="M256,21.7h-2.4l-.8-2.4h-3.1l-.8,2.4h-2.3l3.5-10.3h2.4l3.4,10.2h.1ZM252.3,17.6l-1-3.7-1,3.7h2Z" style="fill: #fff;"/>
    <path id="Path_169" d="M182.7,21.8l-.5-6.8-2.1,6.8h-1.9l-1.4-4.9-.5-2-.5,6.8h-2.2l1-10.2h2.8l1.8,6.5.4-1.4,1.4-5h2.8l1,10.2s-2.1,0-2.1,0Z" style="fill: #fff;"/>
    <path id="Path_170" d="M114.9,21.8h-2.3l-2.1-4.4-1.1-2.6v7c0,0-2,0-2,0v-10.2h2.4l2.3,4.5.9,2.1v-3.1c0,0,0-3.4,0-3.4h2.1v10.2h-.1Z" style="fill: #fff;"/>
    <path id="Path_171" d="M192.7,22c-.9,0-1.8-.2-2.6-.6-2.2-1.5-2.6-4.8-1.6-7.2.4-1,1.1-1.8,2.1-2.2,1.3-.6,2.9-.6,4.2,0,2.6,1.2,3,4.7,2.2,7.2-.6,1.8-2.3,3-4.2,2.9M192.4,20.4c1,.1,1.9-.5,2.1-1.5.3-1.3.3-2.7,0-4.1-.1-1.1-1.1-1.9-2.2-1.7-.9,0-1.6.8-1.7,1.6-.3,1.4-.3,2.8,0,4.2.2.9.9,1.5,1.8,1.5" style="fill: #fff;"/>
    <path id="Path_172" d="M103.5,21.8h-2.2v-4.6h-3.1v4.6h-2.2v-10.2h2.2v4h3.1v-4h2.2v10.2Z" style="fill: #fff;"/>
    <path id="Path_173" d="M143.1,21.8h-2.2v-4.5h-3.1v4.6h-2.2v-10.2h2.2v3.9h3.1v-4h2.2s0,10.2,0,10.2Z" style="fill: #fff;"/>
    <path id="Path_174" d="M170.2,21.8h-2.2v-4.5h-3.1v4.6h-2.2v-10.3h2.2v4h3.1v-4h2.2v10.2Z" style="fill: #fff;"/>
    <path id="Path_175" d="M205.1,16.3l3.8,5.5h-2.9l-3.2-5.3v5.3h-2.2v-10.2h2.2v4.6l3-4.6h2.7l-3.4,4.7h0Z" style="fill: #fff;"/>
    <path id="Path_176" d="M129.4,16.3l3.8,5.5h-2.9l-3.2-5.3v5.3h-2.3v-10.2h2.2v4.6l3-4.6h2.7l-3.4,4.7h0Z" style="fill: #fff;"/>
    <path id="Path_177" d="M159.4,21.8h-8.3v-1.5l3.3-8.7h1.9l3.3,8.8-.3,1.5h.1ZM157.3,20l-1-2.7-.9-2.9-1,2.8-1,2.8h3.9Z" style="fill: #fff;"/>
    <path id="Path_178" d="M226.8,19.4h-3.1l-.8,2.4h-2.3l3.5-10.3h2.4l3.4,10.3h-2.3l-.8-2.4h0ZM226.2,17.6l-1-3.7-1,3.7h2Z" style="fill: #fff;"/>
    <path id="Path_179" d="M216,17.9h-2.5v3.8h-2.2v-10.1h3.8c.7,0,1.4.2,2.1.5,1,.5,1.6,1.6,1.5,2.7,0,1.6-1.1,3-2.7,3.2M216.4,14.8c0-.8-.5-1.4-1.2-1.5h-1.6v3.1h2c.6-.1.8-.9.8-1.5" style="fill: #fff;"/>
    <path id="Path_180" d="M89.7,17.3l-.7-3.2-.9,3.4-1.3,4.3h-2.3l3.3-10.3h2.3l3.2,10.3h-2.3l-1.4-4.5h.1Z" style="fill: #fff;"/>
    <path id="Path_181" d="M79.3,17.3l-.8-3.2-.7,2.7-1.5,5h-2.3l3.3-10.3h2.3l3.2,10.3h-2.3l-1.4-4.5h.2Z" style="fill: #fff;"/>
    <path id="Path_182" d="M71.1,17.3h-3v2.7h4v1.8h-6.3v-10.2h6.2l-.3,1.7h-3.6v2.3h3s0,1.7,0,1.7Z" style="fill: #fff;"/>
    <path id="Path_184" d="M236.4,21.8h-2.2v-8.5h-2.6v-1.7h7.8l-.3,1.7h-2.6v8.5h0Z" style="fill: #fff;"/>
    <path id="Path_185" d="M98.8,40.4v3.4l-1.2.2v-7.5c0-.8.3-1.6.9-2.2.6-.5,1.4-.8,2.2-.8,1.2,0,2.2.7,2.6,1.8.6,1.8.5,4.5-1.3,5.5-1.1.5-2.4.4-3.2-.5M100.6,40.2c.8,0,1.5-.5,1.6-1.3.4-1.6.2-4.1-1.3-4.4-.6-.2-1.3,0-1.7.6-.3.4-.4.9-.4,1.3v2.9c.4.6,1.1,1,1.8,1" style="fill: #fff;"/>
    <rect id="Rectangle_66" x="241.8" y="11.6" width="2.3" height="10.2" style="fill: #fff;"/>
    <rect id="Rectangle_67" x="118.7" y="11.6" width="2.3" height="10.2" style="fill: #fff;"/>
    <path id="Path_186" d="M165.8,40.3l-.6.8c-.5-.2-.9-.6-1-1.1-.8,1-2.2,1.3-3.3.7-1.7-.9-1.9-3.1-1.5-5,.1-.7.5-1.3,1.1-1.8,1.1-.9,2.7-.7,3.6.4h0l.2-.7h1.1l-.2,1.9v3.8c0,.4.2.7.6.9M161.5,39.9c.9.5,2.1,0,2.5-.9h0v-3.4c-.4-.6-1-1-1.7-1s-1.6.5-1.8,1.3c-.2,1-.2,2,0,3,.1.5.4.9.9,1.1" style="fill: #fff;"/>
    <path id="Path_187" d="M126.2,41.2c-1.3,0-2.5-.8-2.9-2-.6-1.9-.4-4.6,1.5-5.4.8-.4,1.8-.4,2.6,0,1.9.8,2.2,3.4,1.7,5.2-.3,1.3-1.5,2.3-2.9,2.2M126,40.2c.9,0,1.7-.5,1.9-1.4h0c.2-1,.2-2,0-3-.2-.9-1-1.4-1.8-1.3-.7,0-1.4.6-1.5,1.3-.2,1-.2,2.1,0,3.1,0,.7.8,1.2,1.5,1.3" style="fill: #fff;"/>
    <path id="Path_188" d="M84.7,41.2c-1.2,0-2.3-.8-2.7-2-.4-1.3-.4-2.6,0-3.9.4-1.1,1.5-1.8,2.6-1.8s2.6.7,3,2c.4,1.2.4,2.5,0,3.7-.4,1.3-1.7,2.2-3,2M84.6,40.2c.9.2,1.7-.4,1.9-1.3.2-1,.2-2,0-3,0-.8-.9-1.4-1.7-1.4s-1.5.5-1.7,1.3c-.2,1-.2,2.1,0,3.1.2.7.7,1.2,1.4,1.2" style="fill: #fff;"/>
    <path id="Path_189" d="M78.3,39.7v-5.1h-2.6v6.3h-1.1v-6.3h-1v-.9h6.9l-.3.9h-.7v4.8c0,.4.2.8.6,1l-.6.8c-.6-.2-1.1-.8-1.1-1.5" style="fill: #fff;"/>
    <path id="Path_190" d="M140.9,31l-3.2,6.1v3.9h-1.3v-4l-3.2-6h1.5l2.4,4.9,2.5-4.9h1.4,0Z" style="fill: #fff;"/>
    <path id="Path_191" d="M73.5,30.9l-3.2,6.1v3.9h-1.3v-3.9l-3.2-6.1h1.5l2.4,4.8,2.4-4.8s1.4,0,1.4,0Z" style="fill: #fff;"/>
    <path id="Path_192" d="M144.6,43.7l-1.1.2c-.2-1,.2-2.1,0-3l-1.9-6c0-.1-.1-.2-.2-.3h-.5l-.3-.7c.4-.3,1-.4,1.5-.3.3.2.6.5.7.9l1.5,4.9,1.9-5.7h1.2l-2.5,7.2v2.8h-.3Z" style="fill: #fff;"/>
    <path id="Path_193" d="M108.5,43.7l-1.1.2v-3l-2-6.1c0-.1,0-.2-.2-.3h-.5l-.3-.7c.4-.3,1-.4,1.5-.3.3.1.5.4.6.7l1.5,5.1,1.9-5.7h1.2l-2.5,7.2v2.8h0Z" style="fill: #fff;"/>
    <path id="Path_194" d="M95.4,33.6v5.3c0,1-.7,1.8-1.6,2.1s-1.9.3-2.8,0c-.7-.4-1.1-1.1-1.1-1.9v-5.2l1.2-.2v5.5c0,.9.7,1.3,1.5,1.3s1.5-.5,1.6-1.3v-5.3l1.1-.2h.1Z" style="fill: #fff;"/>
    <path id="Path_195" d="M114.4,37.6c-.6,0-1.1.5-1.1,1.1s.3,1.1.9,1.3c1.1.3,2.3,0,3.2-.5l.4.7c-1.4,1-3.1,1.2-4.6.6-.8-.3-1.2-1.1-1.2-2s.7-1.6,1.6-1.8c-.9-.2-1.5-1-1.3-1.9v-.3c.6-1.8,3.7-1.9,5.3-.5l-.5.7c-.8-.6-1.7-.9-2.7-.7-.6,0-1,.6-.9,1.2,0,.4.4.8.8.9.5.1,1.1.2,1.6.1v.8h-1.5v.3Z" style="fill: #fff;"/>
    <path id="Path_196" d="M150.5,37.6c-.6,0-1,.5-1,1.1s.3,1.1.9,1.3c1.1.3,2.3,0,3.2-.5l.4.8c-1.3.9-3,1.1-4.5.6-1-.3-1.6-1.4-1.3-2.5.2-.7.8-1.2,1.5-1.3-.5-.1-.9-.4-1.2-.9-.2-.5-.3-1,0-1.5.8-1.7,3.8-1.7,5.2-.3l-.5.7c-.8-.6-1.8-.8-2.7-.7-.6,0-1,.6-.9,1.2,0,.4.4.8.8.9.5.1,1.1.2,1.6.1v.8h-1.6v.2Z" style="fill: #fff;"/>
    <path id="Path_197" d="M172.3,43.2l-.6.9-.7-.5c.3-.4.5-.8.7-1.3.2-.6-.2-1.2-.8-1.3h-.1c-.6,0-1.1-.2-1.7-.5-.8-.4-1.3-1.1-1.4-1.9-.3-1.8,0-3.7,1.6-4.6,1.1-.6,2.4-.4,3.3.4l-.6.8c-.4-.5-1.1-.7-1.7-.6-1.3.3-1.6,2.1-1.4,3.5,0,.7.6,1.4,1.4,1.5l1.4.4c.4,0,.8.4,1,.8.3.8.2,1.6-.3,2.3" style="fill: #fff;"/>
    <path id="Path_198" d="M157.8,40.9c-.5.3-1.1.3-1.5,0-.3-.2-.4-.5-.4-.9v-5.1l-.2-1.2,1.2-.2c.1.6.2,1.1.2,1.7v4.5c0,0,0,.3.1.4.1,0,.3,0,.4,0l.2.7Z" style="fill: #fff;"/>
    <path id="Path_199" d="M121.7,40.9c-.3,0-.5.2-.8.2-.6,0-1.1-.5-1.2-1.1h0v-5.1l-.2-1.1,1.2-.2.2,1.5v4.8s0,.3,0,.3h.4l.2.8h.1Z" style="fill: #fff;"/>
    <path id="Path_200" d="M120.5,32.8l-.6-.3,1-3.1,1,.5-1.5,2.9h0Z" style="fill: #fff;"/>
    <path id="Path_201" d="M156.7,32.8l-.6-.3,1-3.1,1,.5-1.5,2.9h.1Z" style="fill: #fff;"/>
  </g>
  <g>
    <path id="Path_166" d="M20.1,55.5h-.2c-.4-.3-.5-.9-.4-1.4,1.5-.3,2.9-.8,4.2-1.5l-5.7-1.6c-1.4.2-2.8.3-4.2.2-2.1-.2-4.1-1.3-5.4-3-1-1.3-1.9-2.6-2.9-3.8l-.2-.2s0-.3.2-.3h1.9c-.8-1.4-1.8-2.5-3-3.3-1.7-1.1-3-2.9-3.6-4.8-.5-1.8-.7-3.7-.6-5.6,0-.2,0-.4.3-.5l2.1,1.6v-1c-1.4-2.9-2.8-6.3-1.9-9.5.3-.9.6-1.8.9-2.6.3-1,.8-2,1.5-2.9.7,1.1,1.2,2.4,1.5,3.6l.6-1.1c0-3.2.2-6.8,2.7-9.1,1.3-1.2,3.2-2.8,4.8-3.2l-.2,2.1c.5-.2,1.1-.5,1.6-.8,1.3-2.4,2.8-4,5.4-4.7l2.8-.6c1.2-.3,2.3-.6,3.6-1,0,1.4-.6,2.8-1.6,3.8-2.2,2.5-4,2.9-7.2,2.9h-2.8l-2,1c-.2,1-.5,2-.8,3-1.3,2.8-3.3,5.3-5.9,7l-.8,1.5c0,.3.2.7.3,1l.3,2.4c.6-.9,1.5-1.6,2.5-2,1.4,4.7-.3,8.7-3.8,11.9,1,1.1,1.8,2.4,2.4,3.9l.7-1.9.2-.2s.2,0,.2,0c.5,1.2,1.1,2.3,1.9,3.4,1.5,1.9,2.3,4.2,2.2,6.6.8.3,1.6.7,2.4,1.1,1.5,1,3,2,4.4,3.2,1,.7,2.4.8,3.5,1.2-1-.6-2-1.4-2.9-2.2-.5-.6-1-1.2-1.4-1.9v-.2h.2c1.4.3,2.8.5,4.3.6,1.9.3,3.9.5,5.4,1.8,1.7-1.4,3.7-2.2,5.8-2.4,1.1,0,2.2-.3,3.2-.7h.3v.2c-.5,1.7-1.4,3.3-2.5,4.7,1.1,0,2.1-.7,2.7-1.6,1.4-2.1,3.4-3.7,5.7-4.6,0-2.7,1-4.4,2.3-6.5.7-1.2,1.2-2.5,1.6-3.8,0,0,0-.2,0-.2h.3c.5.7,1,1.4,1.5,2.1.3-1.3.8-2.5,1.4-3.5-.7-.7-1.5-1.2-2.2-1.9-1.5-1.6-2.3-3.7-2.2-5.9,0-1.3.3-2.6.8-3.9,0-.1.3,0,.4,0l1.8,2.1c0-1.3,0-2.5.3-3.7-.3-.7-.6-1.4-1-2-.9-1.3-2-2.4-3.2-3.4-1.8-1.6-3-3.7-3.4-6.1l-1.2-.8-2.7.2c-2,.2-4-.4-5.7-1.5-2.2.5-4.4.6-6.6.2l-.2-.2s0,0,.1-.2c1-1.2,2.2-2.1,3.6-2.8-.3-.7-.6-1.5-.6-2.3,1.1.3,2.2.5,3.3.6,1.1,0,2.1.2,3.1.4,1.6.5,3,1.4,4,2.6.4.7.8,1.3,1.4,1.9.5.5,1,.9,1.6,1.3v-2c2.5,1.1,6,3.6,6.6,6.2.4,1.7.5,3.4.5,5.1,0,.7.4,1.4.7,2.1l.6-1.5,1.2-2.8s.3-.1.3,0c1.2,1.9,2,4,2.5,6.2.5,2.8,0,5.7-1.9,8l.3,1.9c.8-.6,2.8-1.9,2.9-1.5v.3c0,1.9,0,3.9-.4,5.8-.7,1.7-1.5,3.4-2.5,5-.8,1.1-2,1.9-3.2,2.3l-.7,1.5,1.3-.2v.6c-1.1,2-2.6,3.8-4.4,5.3-1.6,1.4-3.7,2.3-5.9,2.5-1.2,0-2.4,0-3.6-.2h-1.9c-.6.5-1.3,1-2.1,1.4,1.3.3,2.5.5,3.8.6.4.5.4,1.3,0,1.8-1.3,0-2.5-.2-3.8-.5l-3.1-.9-2.8.2c-.4,0-.9,0-1.3.3-1.4.6-2.8,1-4.3,1.3M39.8,6.1c-.7-.6-1.3-1.3-1.7-2.2-1.5-1.8-3.8-2.9-6.2-2.9s-2.3-.2-3.4-.5c.7,1.7,1.9,3.2,3.4,4.1,1.5,1.1,3.4,1.7,5.3,1.6l2.6-.2h0ZM18.1,6.7c1.6,0,3.2-.5,4.5-1.5,1.4-1,2.4-2.5,2.8-4.2-.8.2-1.5.5-2.3.6l-3.3.7c-1.4.3-2.6,1-3.6,2-.6.7-1.2,1.5-1.6,2.3h3.5ZM27.3,4.7c-.1,0-.2,0-.2-.2v-.3l2.7-.9-.7-.8c-1.3.6-2.4,1.4-3.3,2.4,1.9.3,3.8.3,5.6,0l-1.2-1.1c-1,.3-1.8.6-2.8.9M47.5,10.6c-1.3-2.3-3.3-4.1-5.8-5.2,0,3,1.2,5.8,3.4,7.7,1.1.9,2,1.9,2.9,3,0-1.9,0-3.7-.6-5.5M5.6,17.4c2.4-1.6,4.3-3.9,5.5-6.5.6-1.5.9-3.2,1-4.8-.9.4-1.7,1-2.4,1.6l-1.7,1.4c-2.2,2.2-2.6,5.4-2.5,8.4M51.8,27.4c1.5-2.1,2.1-4.8,1.6-7.4-.4-2-1.1-3.9-2.2-5.6l-1.1,2.7c-.8,1.9-1.1,4-.8,6.1,1.1,1.2,2,2.6,2.6,4.1M2.8,29.8l1.4-2.9c.5-1,.8-2,.8-3.1,0-2.7-.7-5.3-1.9-7.6-.5.8-.9,1.7-1.2,2.6l-.8,2.2c-.5,2.8.6,6.2,1.8,8.8M47.2,23.7s0-.3.2-.3h.2c0,.1,1.2,2.9,1.2,2.9l.2-1.4c0-.1,0-.2.2-.3,0,0,.3.2.2.3l-.3,2.1.9,1.6.2-1.8c0-.1.3-.2.4,0,0,.8,0,1.7-.2,2.5l.9,1.5.6-.6c0-2.4-1.1-4.6-2.7-6.4l-2.4-2.7c-1,3.1-.7,6.6,1.6,8.9s1.4,1.1,2.1,1.8l.5-.7-1-1.7-2.1-1.1s0-.3,0-.4h.3l1.5.8-.8-1.6c-.8-.2-2.1-1.1-1.9-1.4.2-.3.8.5,1.5.8l-1.2-2.8h-.1ZM6.1,26.8l-.4.9.8-.3s.3.1.3.2c0,.4-1,.4-1.3.9-.2.4-.4.8-.5,1.2l.5-.3s.3,0,.3.1,0,.2,0,.3l-1.2.7-.9,1.6.4.4c3.2-3,4.9-6.6,3.7-10.9-.9.5-1.7,1.3-2.2,2.2,0,1.2-.4,2.4-1,3.5l-1.4,3.1v1.5c1.6-2.6,2.8-5.4,3.6-8.4,0-.1.2-.2.3-.2l.2.2v.6s.2-.1.4-.1c0,0,0,.2,0,.3-.3.4-1,.5-1.1,1.7l.6-.3s.3.1.3.2c0,.4-1,.5-1.2,1M51.7,39.4l.8-1.2,1.8-3.8c.4-1.8.5-3.7.6-5.6-3.2,1.4-5.3,4.4-5.7,7.9.5,1.4.5,3,0,4.4.9-.4,1.7-.9,2.4-1.6M6.8,42.4c-.4-1.5-.6-3.1-.5-4.7-1-3-3-5.6-5.7-7.3-.1,3.5.4,7.2,3.2,9.4,1.1.7,2.1,1.6,3,2.6M46.8,39.1l.3-2.4s.2-.2.3-.2l.2.2-.3,2.4.7-.6h.3c.4,0-.3.9-1.1,1.4l-.3,1.5,1-.9s.3,0,.4,0c.2.3-.9,1.2-1.6,1.6l-.6,1.5,1.7-.2c2-2.7,1.8-6.5-.5-9-.4,1.3-.9,2.5-1.6,3.7-.4.7-.9,1.4-1.2,2.2-.6,1.2-.9,2.5-.9,3.9l2.1-.6-.9-1.4s0-.4,0-.4.2,0,.3.2l.6,1,.4-1-.8-1.6s0-.3.2-.3.2,0,.3.2l.6,1.2.4-1.5c-.6-.6-1-1.6-.7-1.6s.4.6.8,1M8.5,39.8l.4-.7h.3c0,.4-.6,1.1-.5,1.6l.3.9.5-1s.3-.2.3,0v.3l-.6,1.4.5,1.1.5-1.2s.3-.2.3,0v.3l-.5,1.3c0,.2-.1.7.1.7l1.1.3c0-2-.6-4-1.7-5.6-.9-1.1-1.6-2.3-2.2-3.5-1.2,2.4-.6,5.1,0,7.5l.4.9,1.7.2-.7-1.8-1.3-.6c0,0-.2-.2-.2-.3,0,0,.3-.2.4,0l.9.4-.4-1.2c-.9-.3-1.5-1-1.1-1.1h.3l.6.4-.4-1.8s0-.2.2-.2.2,0,.2.2l.4,1.7h.2ZM38.9,50.8c2.2,0,4.3-.9,6-2.4l2.5-2.6c.7-.7,1.2-1.5,1.6-2.4l-3.7.4c-1,.2-1.9.5-2.8.9-1.8.8-3.4,2-4.5,3.6-.6.9-1.3,1.6-2.3,2.2,1,.2,2.1.3,3.1.3M24.3,52.3l.8-.6c-2.4-.7-4.6-1.3-6.8-2.1-3.4-3.1-7.5-5.5-12.3-5.2,1,1.2,1.9,2.4,2.8,3.7,1.1,1.4,2.7,2.4,4.5,2.7,1.6.3,3.2.2,4.7,0l6.3,1.7h0ZM20.2,55c1.6-.3,3.1-.8,4.6-1.5l1.5-.2c5.1,0,8.7-2.7,10.3-7.5-1,.4-2,.6-3,.6-1.3.2-2.5.5-3.6,1.1s-2.1,1.4-2.9,2.5c-1.4,2.6-4.3,3.7-7.1,4.4,0,.2,0,.4.3.5M20.5,47.2l2.5,1c-.2-.3-.4-.5-.7-.7.2-.6,1.1,0,1.5,1l.9.4-.5-.6v-.4h.3l1,1.2,1.2.5.9-1c-2.3-2-5.9-1.4-8.9-2.2,1.4,2.4,4.3,3.9,6.9,4.8l1-1.2-1.1-.5c-.8.3-2.1.6-2.1.2s.1-.2.2-.2l1.3-.2-1-.5c-.7.2-1.7.3-2,0,0,0,0-.3.1-.3h1l-2.6-1.1c-.1,0-.2-.3-.1-.4h.3M35.2,54.5c.2-.3.2-.6,0-1-1.4-.2-2.8-.4-4.2-.7l-1.6.5c1.9.6,3.8,1,5.8,1.1" style="fill: #fff;"/>
    <path id="Path_168" d="M31.1,41.3c-1.4.2-2.7.9-3.6,2-.9-1.1-2.2-1.9-3.6-2-2.1-.2-4.2-.2-6.3-.2s-3.6-.4-4.4-2.3c-.2-.6-.3-1.2-.3-1.8V12.7h28.9v24.4c0,.6,0,1.2-.3,1.7-.8,1.8-2.4,2.2-4.3,2.2s-4.1,0-6.1.2M22.7,19.2v.8h-8.8v.6h8.8v.9h-8.8v.6h8.8v.9h-9v.7h9.8v-10.3h-9.8v1h9v.9h-8.8v.6h8.8v1.1h-8.8v.6h8.8v1h-8.8v.6h8.8ZM40.4,19.2v.8h-8.8v.6h8.8v.9h-8.8v.6h8.8v.9h-8.9v.7h9.7v-10.3h-9.7v1h9v.9h-8.8v.6h8.8v1.1h-8.8v.6h8.8v1h-8.8v.6h8.8,0ZM22.6,35.7v1h-8.9c0,.2,0,.4.1.6h8.8v1h-8.5c0,.2.2.4.4.6h8.1v1h-7.4c.4.3.9.5,1.5.6h6.9v-10.8h-9.8v1h8.9v1.1h-8.9v.6h8.9v1.2h-8.9v.5h8.9v1.2h-8.9v.5h8.9-.1ZM40.2,36.7h-8.7c-.1,0-.1.6,0,.6h8.8l-.2,1h-8.7v.5h8.3c-.5.7-1.2,1-2,1h-6.4v.6h6c.9,0,1.9-.2,2.6-.7.8-.6,1.2-1.5,1.1-2.4v-7.6h-9.7v1h8.9v1.1h-8.9v.6h8.8v1.2h-8.9v.5h8.9v1.2h-8.9v.5h8.8v1h.2Z" style="fill: #fff;"/>
    <path id="Path_183" d="M42.4,37.6c0,.4,0,.9,0,1.3-.5,2.3-2.2,3.1-4.6,3.2l-6.2.2c-1.7,0-3,1.4-3.8,2.9-.8-1.5-2.2-2.6-3.9-2.9l-5.6-.2c-2.6,0-5-.7-5.9-3.2-.3-.8-.4-1.6-.5-2.4V12.8l.6-.5v24.7c0,.8.2,1.6.6,2.3.8,1.7,2.6,2.3,4.4,2.3s4.1,0,6.2,0c1.3,0,2.5.6,3.4,1.6l.7.8c.9-1.6,2.7-2.5,4.5-2.4h5.7c2.6-.2,4.3-1.5,4.5-4.1" style="fill: #fff;"/>
    <path id="Path_202" d="M40.1,7.9c0,.3-.2.6-.6.6s-.6-.2-.6-.6.2-.6.6-.6.6.2.6.6h0" style="fill: #fff;"/>
    <path id="Path_203" d="M54,27.7c0,.3-.2.6-.6.6s-.6-.2-.6-.6.2-.6.6-.6.6.2.6.6" style="fill: #fff;"/>
    <path id="Path_204" d="M40.9,4.3c0,.3-.2.6-.6.6s-.5-.2-.5-.6.2-.5.5-.6.6.2.6.5h0" style="fill: #fff;"/>
    <path id="Path_205" d="M51.2,42.1c0,.3-.2.5-.5.5s-.5-.2-.5-.5.2-.5.5-.5h0c.3,0,.5.2.5.5" style="fill: #fff;"/>
    <path id="Path_206" d="M48,17.8c0,.3-.2.5-.5.5s-.5-.2-.5-.5.2-.5.5-.5h0c.3,0,.5.2.5.5" style="fill: #fff;"/>
    <path id="Path_207" d="M50,15c0,.3-.2.5-.5.5s-.5-.2-.5-.5.2-.5.5-.5h0c.3,0,.5.2.5.5" style="fill: #fff;"/>
    <path id="Path_208" d="M13.9,5.6c0,.3-.2.5-.5.5s-.5-.2-.5-.5.2-.5.5-.5h0c.3,0,.5.2.5.5" style="fill: #fff;"/>
    <path id="Path_209" d="M19.9,52.3c0,.3-.2.5-.5.5s-.5-.2-.5-.5.2-.5.5-.5h0c.3,0,.5.2.5.5" style="fill: #fff;"/>
    <path id="Path_210" d="M14.9,8.5c0,.3-.2.5-.5.5s-.5-.2-.5-.5.2-.5.5-.5h0c.3,0,.5.2.5.5" style="fill: #fff;"/>
    <path id="Path_211" d="M5.1,42.8c0,.3-.2.5-.5.5s-.5-.2-.5-.5.2-.5.5-.5.5.2.5.5h0" style="fill: #fff;"/>
    <path id="Path_212" d="M7.5,18.1c0,.3-.2.5-.5.5s-.5-.2-.5-.5.2-.5.5-.5.5.2.5.5h0" style="fill: #fff;"/>
    <path id="Path_213" d="M1.1,28.6c0,.3-.2.5-.5.5s-.6-.2-.6-.5.2-.5.5-.5h0c.3,0,.5.2.5.5h0" style="fill: #fff;"/>
    <path id="Path_214" d="M36.1,52.1c0,.3-.2.5-.5.5s-.5-.2-.5-.5.2-.5.5-.5.5.2.5.5h0" style="fill: #fff;"/>
    <path id="Path_215" d="M4.8,16c0,.3-.2.5-.5.5s-.5-.2-.5-.5.2-.5.5-.5.5.2.5.5h0" style="fill: #fff;"/>
    <path id="Path_216" d="M14.4,50.3s-.3,0-.3-.2.1-.2.2-.3l1.5-.3-1-.4-2.2.5-.2-.2s.1-.2.2-.2l1.5-.4-1.2-.6-2.3.2h-.3s.1-.3.2-.3h1.5c0,0-1.2-.7-1.2-.7l-1.9.2c-.1,0-.1-.4,0-.4h1.1c0,0-2.5-1.6-2.5-1.6,0,0,0-.3,0-.4h.3l2.3,1.3-.4-.8v-.3h.4l1,1.5,1.1.5-.7-1.1v-.3h.3l1.1,1.8,1.1.5-.8-1.3v-.3s.3,0,.3,0l1.2,1.9,2.3,1s0,.2.1.3c0,0-.2,0-.3,0l-.7-.3-2,.5h.3Z" style="fill: #fff;"/>
    <path id="Path_217" d="M26.2,52.7h-.4s0-.3.1-.3l1.5-.8c.1-.9.5-2.5.9-2.3,0,0,.1.2.1.3l-.5,1.7.8-.4c0-.9.3-1.8.9-2.6,0,0,.3,0,.3,0v.3c-.4.6-.6,1.2-.7,1.9l1.1-.7c0-.8.3-1.5.8-2.1,0,0,.2,0,.2,0v.3l-.5,1.4,1-.6c0-.9.6-2,.8-1.7s-.3.7-.3,1.4l2.7-1.7h.3v.4l-2.3,1.5h.9s.2.3,0,.4c0,0-.2,0-.3,0h-1.5l-.8.5h1.5c0,0,.2,0,.3.2.3.3-1.3.4-2.4.2l-.9.6c.8.2,1.5,0,1.8,0,.4.4-1.3.4-2.4.2-.2,0-.5.2-.7.4h1.5c.1.2.2.2.3.3.1.4-1.5.2-2.4,0l-1.6.8h-.2Z" style="fill: #fff;"/>
    <path id="Path_218" d="M40.6,48.8c-.4,0-.8.3-1.2.6h1.2c.7,0,0,1-1.9.2l-1,.4h-.3v-.3l2.7-1.2c0-.9.6-2.3,1-2.2.5,0-.6,1-.5,2l1.5-.8c0-.9.4-2.4.7-2.2,0,0,0,.2,0,.3l-.4,1.6,1.4-.8c0-1,.6-2.3.9-1.8.2.2-.4.7-.4,1.5l2.1-1.4h.4v.3l-2,1.4h.7s.2,0,.2.2c0,0,0,.3-.2.3h-1.4l-1.2.6h.9c0,.2.2.2.3.2,0,0,0,.3,0,.3-.5,0-1.1,0-1.6-.2l-1.4.8c.4,0,.8,0,1.2,0l.2.2s-.2.2-.3.2l-1.7-.2h0Z" style="fill: #fff;"/>
    <path id="Path_219" d="M50.3,39.1s-.2,0-.3,0c0,0,0-.2,0-.3l.5-1.1c-.3-.8-.5-1.7-.6-2.5l.2-.2.2.2.4,1.8.6-1.4c-.6-.8-1-2.3-.7-2.5.4,0,.2,1,.8,2l.6-1.4c-.3-.9-.5-2.6,0-2.6s0,1.1.4,1.9l1-2.2s.2-.3.2-.2l.2.2-1.1,2.5,1-.7h.3c.4,0-.7,1.1-1.6,1.4l-.5,1.2c.7-.3,1.6-1.3,1.7-1v.3c-.5.6-1.2,1-2,1.4l-.6,1.4,1.3-.8h.3v.3l-1.9,1.2-.5,1.1h.3Z" style="fill: #fff;"/>
    <path id="Path_220" d="M51.7,25.3l-.2.3s-.2-.2-.2-.3v-1.2c-.7-.5-1.8-1.4-1.6-1.8s.9.8,1.6,1.2v-1.7c-.7-.2-1.2-.6-1.6-1.2.3-.6.6.3,1.5.7v-1.5c-.9-.4-1.6-1.2-1.2-1.3h.3l.9.7v-2.7s.3.1.3.3v2.1c.5-.5.5-1.4.7-1.3l.3.2c0,.7-.4,1.4-.9,1.9v1.3c.7-.7.7-1.6,1.1-1.6s-.3,1.6-1.1,2.3v1.7l1.1-1.5s.2-.1.3-.2c.5,0-.6,1.6-1.3,2.3v1.2h0Z" style="fill: #fff;"/>
    <path id="Path_221" d="M38.4,5.8l-1.3-.5-1.6.4s-.3,0-.3-.2,0-.2.2-.2l1-.2-1-.5-1.5.4c0,0-.2,0-.3,0,0,0,0-.2.2-.3l1-.3-1.5-.8c-.6.3-1.3.6-1.4.3,0,0,0-.3.2-.3l.8-.2-1.8-1.1s-.1-.2-.1-.3.2-.1.3,0l2,1.2c0-.5,0-1.1.2-1,.4,0,.3.6.2,1.2l1.5.8c0-.6-.4-1-.4-1.4,0,0,.3,0,.4,0,.3.5.5,1.1.5,1.6l1.3.6c0-.9-.7-1.5-.5-1.8.3-.4.8,1.1,1.1,2l1,.4s.2.2.2.3-.2,0-.3,0" style="fill: #fff;"/>
    <path id="Path_222" d="M3.1,26.1v1.6c0,.1-.2.2-.3.3,0,0-.3-.1-.3-.2v-1.6c-.7-.6-1.6-2-1.1-2s.4.8,1.1,1.4v-1.7c-.7-.5-1.6-1.4-1.2-1.7h.3l.7.9v-1.4l-.7-1.1v-.3h.3l.4.6v-2.6l.3-.2c.4-.3,0,2,.2,3.1l.4-.8s.2-.2.3-.2c0,0,0,.3,0,.4l-.8,1.4v1.4l.7-1.1s.2-.1.3-.1c0,0,0,.2,0,.3l-.4.7c-.2.3-.4.6-.7.8v1.6l.9-1.4s.2-.1.3-.2c0,0,0,.3,0,.3l-.5.9c-.2.4-.5.7-.7,1" style="fill: #fff;"/>
    <path id="Path_223" d="M7.3,14.8l-.5.8s-.2.1-.3.1v-.3c0,0,.4-.8.4-.8-.2-.8-.5-2-.2-2.1.4,0,.2.8.5,1.5l.7-1.3c-.3-.6-.7-1.4-.4-1.9h.3v.3c0,.4.2.7.3,1l.5-1-.2-1.7c0-.1,0-.2.2-.3,0,0,.2.1.2.2v1.1c.1,0,1.9-2.9,1.9-2.9,0,0,.3-.2.3,0,0,0,0,.2.1.3-.7,1.1-1.3,2.1-2,3.3l.9-.5h.3s.1.3,0,.4c-.5.3-1,.6-1.5.7l-.5,1,1.2-.6h.3v.3l-.7.4c-.3.2-.7.3-1.1.4l-.5,1.1,1-.6c.1,0,.3,0,.3.2,0,.3-1,.8-1.7,1" style="fill: #fff;"/>
    <path id="Path_224" d="M5.8,39.8v.3s-.3,0-.3,0l-.5-1.1c-.7-.3-2.1-.9-2.1-1.3,0,0,.2,0,.3,0l1.4.7-.5-1-1-.5-.8-.4s-.2,0-.2-.2c0,0,.2-.3.3-.2l1.4.6-.7-1.3-1.6-.6s-.2-.2-.2-.3.2,0,.3,0l1,.3-1.3-2.2v-.3h.3l1.1,1.9v-.8c0,0,0-.2,0-.3,0,0,.2,0,.3.2l.2,2c0,.3.2.6.4.8v-1.1c0,0,0-.2,0-.2,0,0,.3,0,.3.2l.2,2.1.5,1v-1.5c.3-.4.4,1.2.3,2.2l.5,1,.3.2Z" style="fill: #fff;"/>
    <path id="Path_225" d="M16.3,6.1s-.3,0-.3,0,0-.3.2-.3l1.1-.4c.2-.8.5-2,1-2s-.3.9-.4,1.7l1.3-.6c0-1,.6-2,.9-1.6.2.3-.3.6-.4,1.4l1-.5.5-1.2s.2,0,.3-.2c0,0,.2.2.1.3l-.3.8,2.4-1.4h.3v.4l-2.2,1.3h1c0,0,.2,0,.2.2,0,0,0,.3-.1.3-.5,0-1.2,0-1.8,0-.4.2-.7.3-1.1.5l1.1.3c.1,0,.3.2.2.3-.1.3-1.2,0-1.8-.3l-1.1.5,1,.2c.1,0,.2,0,.3.2,0,0-.2.3-.3.3l-1.7-.4-1.2.4h-.2Z" style="fill: #fff;"/>
    <path id="Path_226" d="M47.7,14.5v.3h-.3l-1-1.9c-.7-.2-1.7-.4-1.7-.8,0,0,.2-.2.3-.2l1.1.4-.5-.9c-1.1,0-1.8-.6-1.5-.7h.3l.9.2-.7-1.1c-.9,0-1.8-.6-1.5-.9.2-.2.5.3,1.1.3l-1.1-1.4v-.3h.4l1.2,1.5v-1.1c0,0,.3-.2.3-.2.3,0,.2,1,0,1.8l.6,1v-1c0,0,0-.2.2-.2.3-.3.4.8.2,1.8l.5.8v-1.2c0,0,.2-.2.3-.2,0,0,.3.1.3.2l-.2,1.9.9,1.9h0Z" style="fill: #fff;"/>
  </g>
</svg>